<?xml version="1.0" encoding="UTF-8" standalone="no"?>
<!DOCTYPE svg PUBLIC "-//W3C//DTD SVG 1.1//EN" "http://www.w3.org/Graphics/SVG/1.1/DTD/svg11.dtd">
<svg width="100%" height="100%" viewBox="0 0 167 193" version="1.1" xmlns="http://www.w3.org/2000/svg" xmlns:xlink="http://www.w3.org/1999/xlink" xml:space="preserve" xmlns:serif="http://www.serif.com/" style="fill-rule:evenodd;clip-rule:evenodd;stroke-linecap:round;stroke-linejoin:round;stroke-miterlimit:1.5;">
    <g transform="matrix(1,0,0,1,-55.4072,-63.9896)">
        <g>
            <g transform="matrix(-2.64969,1.97846e-17,3.04357e-17,-3.82763,352.322,375.788)">
                <path d="M91.128,64.736L91.132,81.457L112.05,73.097L91.128,64.736Z" style="fill:rgb(229,62,62);"/>
            </g>
            <g transform="matrix(-2.64969,1.97846e-17,3.04357e-17,-3.82763,352.322,439.559)">
                <path d="M91.134,64.676L91.134,81.395L112.051,73.038L91.134,64.676Z" style="fill:rgb(229,62,62);"/>
            </g>
            <g transform="matrix(-2.64969,1.97846e-17,3.04357e-17,-3.82763,408.134,407.785)">
                <path d="M91.273,64.742L91.278,81.456L112.198,73.097L91.273,64.742Z" style="fill:rgb(229,62,62);"/>
            </g>
            <g transform="matrix(-2.64969,1.97846e-17,3.04357e-17,-3.82763,408.134,472.015)">
                <path d="M91.278,64.79L91.273,81.515L112.192,73.153L91.278,64.79Z" style="fill:rgb(229,62,62);"/>
            </g>
            <g transform="matrix(-2.64969,1.97846e-17,3.04357e-17,-3.82763,463.869,439.837)">
                <path d="M91.396,64.75L91.393,81.469L112.266,73.108L91.396,64.75Z" style="fill:rgb(229,62,62);"/>
            </g>
            <g transform="matrix(-2.63652,1.71037e-17,2.63116e-17,-3.84105,351.122,504.65)">
                <path d="M91.128,64.736L91.128,81.398L112.152,73.065L91.128,64.736Z" style="fill:rgb(229,62,62);"/>
            </g>
            <g transform="matrix(2.01456,-0.0148726,-0.01332,-1.80426,-56.0287,215.558)">
                <path d="M83.153,47.843L83.385,83.31L110.781,65.35L83.153,47.843Z" style="fill:rgb(245,101,101);stroke:rgb(245,101,101);stroke-width:0.01px;"/>
            </g>
            <g transform="matrix(2.04097,-0.0150675,-0.0133092,-1.8028,-58.2338,343.498)">
                <path d="M83.153,47.843L83.386,83.346L110.428,65.362L83.153,47.843Z" style="fill:rgb(245,101,101);stroke:rgb(245,101,101);stroke-width:0.01px;"/>
            </g>
            <g transform="matrix(2.04097,-0.0150675,-0.0133092,-1.8028,-1.86302,312.044)">
                <path d="M82.696,48.146L82.942,83.646L109.964,65.669L82.696,48.146Z" style="fill:rgb(245,101,101);stroke:rgb(245,101,101);stroke-width:0.01px;"/>
            </g>
            <g transform="matrix(2.04097,-0.0150675,-0.0133092,-1.8028,-2.35322,248.1)">
                <path d="M82.969,48.188L83.168,83.673L110.205,65.699L82.969,48.188Z" style="fill:rgb(245,101,101);stroke:rgb(245,101,101);stroke-width:0.01px;"/>
            </g>
            <g transform="matrix(2.04097,-0.0150675,-0.0133092,-1.8028,-113.55,311.44)">
                <path d="M83.102,47.807L83.333,83.308L110.372,65.328L83.102,47.807Z" style="fill:rgb(245,101,101);stroke:rgb(245,101,101);stroke-width:0.01px;"/>
            </g>
            <g transform="matrix(2.04097,-0.0150675,-0.0133092,-1.8028,-112.835,247.25)">
                <path d="M82.753,47.705L82.982,83.202L110.021,65.229L82.753,47.705Z" style="fill:rgb(245,101,101);stroke:rgb(245,101,101);stroke-width:0.01px;"/>
            </g>
        </g>
    </g>
</svg>
